<?xml version="1.0" encoding="utf-8"?>
<!-- Generator: Adobe Illustrator 16.0.4, SVG Export Plug-In . SVG Version: 6.00 Build 0)  -->
<!DOCTYPE svg PUBLIC "-//W3C//DTD SVG 1.1//EN" "http://www.w3.org/Graphics/SVG/1.1/DTD/svg11.dtd">
<svg version="1.1" id="Layer_1" xmlns="http://www.w3.org/2000/svg" xmlns:xlink="http://www.w3.org/1999/xlink" x="0px" y="0px"
	 width="144px" height="144px" viewBox="0 0 144 144" enable-background="new 0 0 144 144" xml:space="preserve">
<linearGradient id="SVGID_1_" gradientUnits="userSpaceOnUse" x1="72.0005" y1="144" x2="72.0005" y2="4.882812e-04">
	<stop  offset="0" style="stop-color:#DD0000"/>
	<stop  offset="1" style="stop-color:#FF0000"/>
</linearGradient>
<rect fill="url(#SVGID_1_)" width="144" height="144"/>
<g>
	<path fill-rule="evenodd" clip-rule="evenodd" d="M60.365,8.719c1.783,0.408,18.963,5.611,49.072-6.07
		c0,0-34.961,20.084-65.689,11.43L60.365,8.719z"/>
	<path d="M129.127,97.059c-22.527,19.596-35.934,18.734-37.521,18.746c-2.084,0.018-6.738-0.119-1.707-3.746
		c7.387-5.334,13.52-12.135,17.113-22.842c2.027-6.029,3.875-9.688,6.219-12.686c9.561-12.24,9.66-16.461,9.66-16.461
		c-1.768,2.502-4.938,8.959-12.963,12.143c-3.131,1.348-3.732,0.438-5.07-1.117c-1.693-1.967-7.34-8.879-15.158-10.795
		c-3.316-0.814-6.318-1.262-8.5-0.951c0-8.795,0-13.799,0-13.799c20.484-3.98,36.379,3.816,36.379,3.816
		c-13.311-9.41-22.523-12.014-36.379-14.027v-9.412c0,0,10.545,0.23,23.33,4.564c12.494,4.236,22.334,12.791,22.334,12.791
		l-2.789-26.471C110.977,17.77,94.156,19.93,79.98,19.93H64.123c-14.213,0-30.877-2.16-43.979-3.117l-2.791,26.471
		c0,0,9.025-8.01,21.459-12.418C50.588,26.371,62.8,25.928,62.8,25.928v9.43c-29.629,2.428-47.927,25.93-47.927,25.93
		C37.4,41.697,50.809,42.553,52.398,42.541c2.082-0.018,6.734,0.117,1.705,3.748c-7.389,5.334-13.52,11.473-17.115,22.176
		c-2.023,6.033-3.875,10.35-6.217,13.348c-9.562,12.244-9.658,16.465-9.658,16.465c1.768-2.504,4.936-8.959,12.961-12.141
		c3.135-1.352,3.734-0.439,5.072,1.115c1.691,1.967,7.338,8.877,15.152,10.795c3.352,0.822,6.114,1.189,8.501,0.941
		c0,0-0.008,6.828,0,13.898c-20.445,3.938-36.208-3.832-36.208-3.832c13.281,9.391,22.403,12.004,36.208,14.014
		c0,0.164,0,0.309,0,0.408c0,2.385-0.069,4.379-2.866,6.146c-2.014,1.271-15.492,9.027-15.492,9.027s12.109-2.076,27.957-2.076
		c15.838,0,27.223,2.076,27.223,2.076s-13.508-7.738-15.492-9.027c-1.652-1.07-2.93-3.037-2.93-6.172c0-0.09,0-0.252,0-0.471
		C110.789,120.521,129.127,97.059,129.127,97.059z M62.8,89.967c-9.359,1.988-26.075-10.314-11.505-28.756
		c4.486-5.682,7.724-8.396,11.505-10.262V89.967z M92.705,97.139c-4.459,5.645-7.752,8.361-11.506,10.225c0-11.15,0-26.369,0-38.998
		C90.457,66.422,107.244,78.734,92.705,97.139z"/>
</g>
</svg>
